<svg width="24" height="24" viewBox="0 0 24 24" fill="none" xmlns="http://www.w3.org/2000/svg">
<path d="M12.0008 6.09759C13.9233 6.09759 14.151 6.10492 14.9102 6.13956C15.6122 6.17159 15.9934 6.28888 16.2471 6.38748C16.5832 6.51809 16.8231 6.67413 17.075 6.92607C17.327 7.17802 17.483 7.41787 17.6136 7.75394C17.7122 8.00765 17.8295 8.38889 17.8615 9.09087C17.8962 9.8501 17.9035 10.0778 17.9035 12.0003C17.9035 13.9228 17.8962 14.1505 17.8615 14.9097C17.8295 15.6117 17.7122 15.9929 17.6136 16.2467C17.483 16.5827 17.327 16.8226 17.075 17.0745C16.8231 17.3265 16.5832 17.4825 16.2471 17.6131C15.9934 17.7117 15.6122 17.829 14.9102 17.861C14.1511 17.8957 13.9234 17.903 12.0008 17.903C10.0782 17.903 9.85047 17.8957 9.09137 17.861C8.38938 17.829 8.00814 17.7117 7.75443 17.6131C7.41835 17.4825 7.1785 17.3265 6.92656 17.0745C6.67462 16.8226 6.51857 16.5827 6.38797 16.2467C6.28937 15.9929 6.17208 15.6117 6.14005 14.9097C6.10541 14.1505 6.09808 13.9228 6.09808 12.0003C6.09808 10.0778 6.10541 9.8501 6.14005 9.09088C6.17208 8.38889 6.28937 8.00765 6.38797 7.75394C6.51857 7.41787 6.67461 7.17802 6.92655 6.92608C7.1785 6.67413 7.41835 6.51809 7.75443 6.38748C8.00814 6.28888 8.38938 6.17159 9.09136 6.13956C9.85058 6.10492 10.0783 6.09759 12.0008 6.09759ZM12.0008 4.80029C10.0454 4.80029 9.80019 4.80858 9.03223 4.84361C8.26586 4.87858 7.74249 5.00029 7.2845 5.17828C6.81104 5.36228 6.40951 5.60847 6.00923 6.00874C5.60896 6.40902 5.36277 6.81055 5.17877 7.28401C5.00078 7.742 4.87907 8.26537 4.8441 9.03175C4.80906 9.7997 4.80078 10.0449 4.80078 12.0003C4.80078 13.9557 4.80906 14.2009 4.8441 14.9688C4.87907 15.7352 5.00078 16.2586 5.17877 16.7166C5.36277 17.19 5.60896 17.5916 6.00923 17.9918C6.40951 18.3921 6.81104 18.6383 7.2845 18.8223C7.74249 19.0003 8.26586 19.122 9.03223 19.157C9.80019 19.192 10.0454 19.2003 12.0008 19.2003C13.9562 19.2003 14.2014 19.192 14.9693 19.157C15.7357 19.122 16.2591 19.0003 16.7171 18.8223C17.1905 18.6383 17.5921 18.3921 17.9923 17.9918C18.3926 17.5916 18.6388 17.19 18.8228 16.7166C19.0008 16.2586 19.1225 15.7352 19.1575 14.9688C19.1925 14.2009 19.2008 13.9557 19.2008 12.0003C19.2008 10.0449 19.1925 9.7997 19.1575 9.03175C19.1225 8.26537 19.0008 7.742 18.8228 7.28401C18.6388 6.81055 18.3926 6.40902 17.9923 6.00874C17.5921 5.60847 17.1905 5.36228 16.7171 5.17828C16.2591 5.00029 15.7357 4.87858 14.9693 4.84361C14.2014 4.80858 13.9562 4.80029 12.0008 4.80029Z" fill="black"/>
<path d="M12.001 8.30298C9.95905 8.30298 8.30371 9.95831 8.30371 12.0003C8.30371 14.0422 9.95905 15.6976 12.001 15.6976C14.043 15.6976 15.6983 14.0422 15.6983 12.0003C15.6983 9.95832 14.043 8.30298 12.001 8.30298ZM12.001 14.4003C10.6755 14.4003 9.60101 13.3258 9.60101 12.0003C9.60101 10.6748 10.6755 9.60028 12.001 9.60028C13.3265 9.60028 14.401 10.6748 14.401 12.0003C14.401 13.3258 13.3265 14.4003 12.001 14.4003Z" fill="black"/>
<path d="M15.8435 9.02097C16.3207 9.02097 16.7075 8.63414 16.7075 8.15697C16.7075 7.67979 16.3207 7.29297 15.8435 7.29297C15.3663 7.29297 14.9795 7.67979 14.9795 8.15697C14.9795 8.63414 15.3663 9.02097 15.8435 9.02097Z" fill="black"/>
</svg>
