<svg width="24" height="24" viewBox="0 0 24 24" fill="none" xmlns="http://www.w3.org/2000/svg">
<path d="M12.0074 3C7.03294 3 3 7.02632 3 11.9926C3 15.8043 5.37232 19.0609 8.72322 20.3709C8.64167 19.6604 8.57495 18.565 8.75287 17.7878C8.91597 17.0847 9.80559 13.3174 9.80559 13.3174C9.80559 13.3174 9.5387 12.7771 9.5387 11.9852C9.5387 10.7344 10.2652 9.80181 11.1697 9.80181C11.9407 9.80181 12.3113 10.3791 12.3113 11.0674C12.3113 11.8372 11.8221 12.9918 11.5626 14.065C11.3476 14.9605 12.0148 15.6933 12.897 15.6933C14.4983 15.6933 15.729 14.0058 15.729 11.5781C15.729 9.42434 14.1795 7.92188 11.9629 7.92188C9.39784 7.92188 7.8929 9.83882 7.8929 11.8224C7.8929 12.5921 8.18944 13.4211 8.56012 13.8725C8.63425 13.9613 8.64167 14.0428 8.61943 14.1316C8.55271 14.4128 8.39702 15.0271 8.36737 15.153C8.3303 15.3158 8.23393 15.3528 8.06342 15.2714C6.93656 14.7459 6.23228 13.1102 6.23228 11.7854C6.23228 8.95066 8.29323 6.34539 12.1853 6.34539C15.3064 6.34539 17.738 8.56579 17.738 11.5411C17.738 14.6423 15.7809 17.1365 13.0675 17.1365C12.1557 17.1365 11.2957 16.6628 11.0066 16.1003C11.0066 16.1003 10.5543 17.8174 10.4431 18.2393C10.243 19.0238 9.69438 20.0008 9.32371 20.6003C10.1688 20.8594 11.0585 21 11.9926 21C16.967 21 21 16.9737 21 12.0074C21.0148 7.02632 16.9818 3 12.0074 3Z" fill="black"/>
</svg>
