<svg width="24" height="24" viewBox="0 0 24 24" fill="none" xmlns="http://www.w3.org/2000/svg">
<path d="M12.6668 3C12.3285 3 12.0517 3.26937 12.0517 3.5986C12.0517 3.5986 12.0276 15.2711 12.0276 15.325C12.0276 16.3965 11.0316 17.3009 9.85674 17.3009C8.71879 17.3009 7.79516 16.402 7.79516 15.2946C7.79516 14.1872 8.71879 13.2896 9.85674 13.2896C9.91209 13.2896 9.96116 13.2964 10.0165 13.3024L10.109 13.3141C10.2813 13.3381 10.4592 13.284 10.5884 13.1703C10.7237 13.0566 10.7974 12.8949 10.7974 12.7214V10.2065C10.7974 9.88929 10.5456 9.62591 10.2196 9.60795L10.1583 9.6021C10.0599 9.59612 9.9613 9.59041 9.85674 9.59041C6.62742 9.59041 4 12.152 4 15.2946C4 18.4373 6.62742 21 9.85674 21C13.0922 21 15.7183 18.4373 15.7183 15.2946V9.92011C16.7517 10.7162 18.1177 11.1108 19.4402 10.991C19.76 10.9611 20 10.7036 20 10.3983V7.60288C20 7.28563 19.7468 7.02823 19.4269 7.00429C17.5017 6.86661 15.9525 5.41258 15.7495 3.53897C15.7188 3.23369 15.4541 3 15.1404 3H12.6668Z" fill="black"/>
</svg>
