<svg width="24" height="24" viewBox="0 0 24 24" fill="none" xmlns="http://www.w3.org/2000/svg">
<path fill-rule="evenodd" clip-rule="evenodd" d="M17.6268 7.16397C18.2463 7.33296 18.7343 7.83086 18.8999 8.46306C19.2008 9.60896 19.2008 11.9998 19.2008 11.9998C19.2008 11.9998 19.2008 14.3906 18.8999 15.5365C18.7343 16.1687 18.2463 16.6666 17.6268 16.8356C16.5038 17.1426 12.0008 17.1426 12.0008 17.1426C12.0008 17.1426 7.49778 17.1426 6.37479 16.8356C5.75524 16.6666 5.26729 16.1687 5.10169 15.5365C4.80078 14.3906 4.80078 11.9998 4.80078 11.9998C4.80078 11.9998 4.80078 9.60897 5.10169 8.46306C5.26729 7.83086 5.75524 7.33296 6.3748 7.16398C7.49778 6.85693 12.0008 6.85693 12.0008 6.85693C12.0008 6.85693 16.5038 6.85693 17.6268 7.16397ZM14.2917 11.9297L10.5281 14.0707V9.78853L14.2917 11.9297Z" fill="black"/>
</svg>
